<svg width="32" height="32" viewBox="0 0 32 32" fill="none" xmlns="http://www.w3.org/2000/svg">
<circle cx="16" cy="16" r="15.6923" transform="rotate(180 16 16)" stroke="#66798B" stroke-width="0.615385"/>
<path d="M13.8215 16.4369L17.3046 19.9138C17.3618 19.9715 17.4299 20.0173 17.5049 20.0486C17.5799 20.0798 17.6603 20.0959 17.7415 20.0959C17.8228 20.0959 17.9032 20.0798 17.9782 20.0486C18.0532 20.0173 18.1213 19.9715 18.1785 19.9138C18.2931 19.7985 18.3574 19.6426 18.3574 19.48C18.3574 19.3174 18.2931 19.1615 18.1785 19.0462L15.1323 15.9692L18.1785 12.9231C18.2931 12.8078 18.3574 12.6518 18.3574 12.4892C18.3574 12.3267 18.2931 12.1707 18.1785 12.0554C18.1215 11.9972 18.0535 11.951 17.9785 11.9193C17.9035 11.8876 17.823 11.8711 17.7415 11.8708C17.6601 11.8711 17.5796 11.8876 17.5046 11.9193C17.4296 11.951 17.3616 11.9972 17.3046 12.0554L13.8215 15.5323C13.7591 15.5899 13.7092 15.6599 13.6751 15.7377C13.641 15.8156 13.6234 15.8996 13.6234 15.9846C13.6234 16.0696 13.641 16.1537 13.6751 16.2315C13.7092 16.3094 13.7591 16.3793 13.8215 16.4369V16.4369Z" fill="#66798B"/>
</svg>
