<svg width="32" height="32" viewBox="0 0 32 32" fill="none" xmlns="http://www.w3.org/2000/svg">
<circle cx="16" cy="16" r="15.6923" stroke="#66798B" stroke-width="0.615385"/>
<path d="M18.1785 15.5631L14.6954 12.0862C14.6382 12.0285 14.5701 11.9827 14.4951 11.9514C14.4201 11.9202 14.3397 11.9041 14.2585 11.9041C14.1772 11.9041 14.0968 11.9202 14.0218 11.9514C13.9468 11.9827 13.8787 12.0285 13.8215 12.0862C13.7069 12.2015 13.6426 12.3574 13.6426 12.52C13.6426 12.6826 13.7069 12.8385 13.8215 12.9538L16.8677 16.0308L13.8215 19.0769C13.7069 19.1922 13.6426 19.3482 13.6426 19.5108C13.6426 19.6733 13.7069 19.8293 13.8215 19.9446C13.8785 20.0028 13.9465 20.049 14.0215 20.0807C14.0965 20.1124 14.177 20.1289 14.2585 20.1292C14.3399 20.1289 14.4204 20.1124 14.4954 20.0807C14.5704 20.049 14.6384 20.0028 14.6954 19.9446L18.1785 16.4677C18.2409 16.4101 18.2908 16.3401 18.3249 16.2623C18.359 16.1844 18.3766 16.1004 18.3766 16.0154C18.3766 15.9304 18.359 15.8463 18.3249 15.7685C18.2908 15.6906 18.2409 15.6207 18.1785 15.5631V15.5631Z" fill="#66798B"/>
</svg>
